Coordinates
version=1
nRows=43
nColumns=12
inDegrees=yes

Units are S.I. units (second, meters, Newtons, ...)
Angles are in degrees

endheader
time	SC_y	SC_z	SC_x	AC_y	AC_z	AC_x	GH_y	GH_z	GH_yy	EL_x	PS_y
       0.0              -50.82          2.313          19.74          30.82          7.969         -5.211         -80.08          21.46          62.55          17.45          152.3
   0.04258              -50.82          2.314          19.75          30.82          7.969         -5.208         -80.06          21.45          62.55          17.46          152.3
   0.08517              -50.82          2.315          19.76          30.83          7.969         -5.204         -80.05          21.45          62.56          17.47          152.3
    0.1278              -50.82          2.316          19.77          30.83           7.97         -5.201         -80.04          21.44          62.56          17.49          152.3
    0.1703              -50.82          2.317          19.77          30.83           7.97         -5.197         -80.02          21.43          62.56           17.5          152.3
    0.2129              -50.82          2.319          19.78          30.84           7.97         -5.192          -80.0          21.43          62.56          17.51          152.3
    0.2555              -50.82           2.32          19.79          30.84          7.971         -5.188         -79.99          21.42          62.57          17.52          152.3
    0.2981              -50.82          2.322           19.8          30.85          7.971         -5.183         -79.97          21.41          62.57          17.54          152.3
    0.3407              -50.81          2.324          19.81          30.85          7.971         -5.178         -79.95           21.4          62.57          17.55          152.3
    0.3833              -50.81          2.326          19.83          30.86          7.972         -5.172         -79.93          21.39          62.58          17.57          152.3
    0.4258              -50.81          2.328          19.84          30.87          7.972         -5.166         -79.91          21.38          62.58          17.59          152.3
    0.4684              -50.81           2.33          19.85          30.87          7.973         -5.159         -79.88          21.37          62.59          17.61          152.3
     0.511              -50.81          2.332          19.87          30.88          7.974         -5.152         -79.86          21.36          62.59          17.63          152.3
    0.5536              -50.81          2.335          19.88          30.89          7.974         -5.145         -79.83          21.35           62.6          17.65          152.3
    0.5962              -50.81          2.337           19.9           30.9          7.975         -5.137          -79.8          21.34           62.6          17.67          152.3
    0.6388               -50.8           2.34          19.92          30.91          7.975         -5.128         -79.76          21.32          62.61           17.7          152.3
    0.6813               -50.8          2.344          19.94          30.92          7.976         -5.118         -79.73          21.31          62.61          17.72          152.3
    0.7239               -50.8          2.347          19.96          30.93          7.977         -5.107         -79.69          21.29          62.62          17.76          152.2
    0.7665               -50.8          2.351          19.99          30.94          7.978         -5.096         -79.64          21.28          62.63          17.79          152.2
    0.8091               -50.8          2.355          20.01          30.95          7.979         -5.083          -79.6          21.26          62.64          17.83          152.2
    0.8517              -50.79           2.36          20.04          30.97           7.98         -5.069         -79.55          21.23          62.65          17.87          152.2
    0.8943              -50.79          2.365          20.08          30.99          7.981         -5.054         -79.49          21.21          62.66          17.91          152.2
    0.9368              -50.79           2.37          20.11           31.0          7.983         -5.037         -79.43          21.18          62.67          17.96          152.2
    0.9794              -50.78          2.377          20.15          31.02          7.984         -5.019         -79.36          21.15          62.68          18.01          152.2
     1.022              -50.78          2.384          20.19          31.05          7.986         -4.998         -79.28          21.12          62.69          18.07          152.1
     1.065              -50.77          2.391          20.24          31.07          7.988         -4.975         -79.19          21.09          62.71          18.14          152.1
     1.107              -50.77            2.4           20.3           31.1           7.99         -4.949         -79.09          21.05          62.72          18.21          152.1
      1.15              -50.76           2.41          20.36          31.13          7.992          -4.92         -78.99           21.0          62.74           18.3          152.1
     1.192              -50.76          2.421          20.43          31.16          7.995         -4.887         -78.86          20.95          62.76          18.39          152.0
     1.235              -50.75          2.433          20.51           31.2          7.998         -4.849         -78.72          20.89          62.79           18.5          152.0
     1.278              -50.74          2.447           20.6          31.25          8.001         -4.807         -78.56          20.82          62.82          18.63          152.0
      1.32              -50.73          2.464           20.7           31.3          8.005         -4.758         -78.38          20.75          62.85          18.77          151.9
     1.363              -50.72          2.482          20.82          31.36           8.01         -4.701         -78.17          20.66          62.89          18.93          151.9
     1.405              -50.71          2.504          20.96          31.43          8.015         -4.635         -77.92          20.55          62.93          19.12          151.8
     1.448              -50.69           2.53          21.12          31.51          8.021         -4.558         -77.63          20.43          62.98          19.34          151.7
      1.49              -50.67           2.56          21.31          31.61          8.028         -4.468          -77.3          20.29          63.04          19.61          151.6
     1.533              -50.65          2.596          21.54          31.72          8.037          -4.36         -76.89          20.12          63.11          19.92          151.5
     1.576              -50.63          2.639          21.82          31.86          8.047         -4.231         -76.41          19.92          63.19          20.29          151.4
     1.618               -50.6          2.691          22.15          32.03           8.06         -4.074         -75.82          19.68           63.3          20.74          151.3
     1.661              -50.56          2.754          22.55          32.23          8.075         -3.884         -75.11          19.38          63.42          21.29          151.1
     1.703              -50.51          2.833          23.05          32.48          8.094         -3.648         -74.23          19.01          63.58          21.98          150.9
     1.746              -50.45          2.931          23.67           32.8          8.117         -3.354         -73.13          18.55          63.77          22.83          150.6
     1.789              -50.38          3.054          24.45          33.19          8.147         -2.984         -71.75          17.97          64.01           23.9          150.3
